# xmcd
#
# Track frame offsets: 
#        150
#        15013
#        25789
#        38942
#        53116
#        68250
#        81125
#        93591
#        107946
#        122252
#        138617
#        151556
#        162900
#        176543
#        190449
#        203110
#        217001
#        231112
#        243674
#        256716
#
# Disc length: 3608 seconds
#
# Revision: 0
# Processed by: cddbd v1.5.2PL0 Copyright (c) Steve Scherf et al.
# Submitted via: ExactAudioCopy v1.0b1
#
DISCID=fd0e1614
DTITLE=Various Artist - Past Perfect (20 Sentimental Songs) Volume 2
DYEAR=2002
DGENRE=Blues
TTITLE0=Fred Astaire - Cheek to Cheek
TTITLE1=The Mills Brothers - You Rascal, You
TTITLE2=Dinah Shore - You'd be So Nice To Come Home To
TTITLE3=Bing Crosby - Temptation
TTITLE4=Frank Sinatra - Nancy with the Laughing Face
TTITLE5=The Ink Spots - Whispering Grass (Don't Tell The Trees)
TTITLE6=Louis Primas - Pennies from Heaven
TTITLE7=Jo Stafford - Candy
TTITLE8=Vera Lynn - A Nightingale Sang in Berkeley Square
TTITLE9=Judy Garland - Fly Me To the Moon
TTITLE10=Dick Haymes - Come Rain or Come Shine
TTITLE11=Dean Martin - You're Adorable
TTITLE12=Louis Armstrong - Some Sweet Day
TTITLE13=Louis Primas - The Love Bug Will Get You
TTITLE14=Fats Waller - What's The Reason
TTITLE15=Gene Krupa (Vocals - Anita O'Day) - Let Me Off Uptown
TTITLE16=Count Basie - Jumpin' at the Woodside
TTITLE17=Cab Calloway - The Ghost of Smoky Joe
TTITLE18=Glenn Miller - The White Cliffs of Dover
TTITLE19=Benny Goodman - Get Happy
EXTD=
EXTT0=
EXTT1=
EXTT2=
EXTT3=
EXTT4=
EXTT5=
EXTT6=
EXTT7=
EXTT8=
EXTT9=
EXTT10=
EXTT11=
EXTT12=
EXTT13=
EXTT14=
EXTT15=
EXTT16=
EXTT17=
EXTT18=
EXTT19=
PLAYORDER=
